<?xml version="1.0" encoding="utf-8"?>
<!-- Generator: Adobe Illustrator 19.0.1, SVG Export Plug-In . SVG Version: 6.00 Build 0)  -->
<!DOCTYPE svg PUBLIC "-//W3C//DTD SVG 1.1//EN" "http://www.w3.org/Graphics/SVG/1.1/DTD/svg11.dtd">
<svg version="1.1" id="Layer_1" xmlns="http://www.w3.org/2000/svg" xmlns:xlink="http://www.w3.org/1999/xlink" x="0px" y="0px"
	 viewBox="-351 34 24 24" style="enable-background:new -351 34 24 24;" xml:space="preserve">
<style type="text/css">
	.st0{fill:#FFFFFF;}
</style>
<title>Vimeo icon</title>
<path class="st0" d="M-327,40.4c-0.1,2.3-1.7,5.5-4.9,9.6c-3.3,4.2-6,6.4-8.3,6.4c-1.4,0-2.6-1.3-3.6-3.9l-1.9-7.1
	c-0.7-2.6-1.5-3.9-2.3-3.9c-0.2,0-0.8,0.4-1.9,1.1l-1.1-1.5c1.2-1,2.4-2.1,3.5-3.1c1.6-1.4,2.8-2.1,3.6-2.2c1.9-0.2,3,1.1,3.4,3.8
	c0.5,3,0.8,4.8,1,5.5c0.5,2.5,1.1,3.7,1.8,3.7c0.5,0,1.3-0.8,2.3-2.4c1-1.6,1.5-2.8,1.6-3.6c0.1-1.4-0.4-2.1-1.6-2.1
	c-0.6,0-1.2,0.1-1.8,0.4c1.2-3.9,3.4-5.8,6.8-5.6C-328,35.7-326.9,37.3-327,40.4C-327,40.4-327,40.4-327,40.4z"/>
</svg>
