<?xml version="1.0" encoding="utf-8"?>
<!-- Generator: Adobe Illustrator 23.0.4, SVG Export Plug-In . SVG Version: 6.00 Build 0)  -->
<svg version="1.1" id="Layer_1" xmlns="http://www.w3.org/2000/svg" xmlns:xlink="http://www.w3.org/1999/xlink" x="0px" y="0px"
	 viewBox="0 0 700 700" style="enable-background:new 0 0 700 700;" xml:space="preserve">
<style type="text/css">
	.st0{enable-background:new    ;}
	.st1{clip-path:url(#SVGID_2_);}
	.st2{clip-path:url(#SVGID_4_);}
</style>
<g>
	<g>
		<g class="st0">
			<g>
				<g>
					<defs>
						<path id="SVGID_1_" d="M624.5,481.8V274.5h-0.1C621.7,125.5,499.1,5,348.7,5C198.2,5,75.6,125.5,72.8,274.5h-0.1v207.3
							c-21.6,7.2-33.2,30.5-25.9,52c7.3,21.5,30.6,33,52.2,25.8c21.6-7.2,33.2-30.5,25.9-52c-4.1-12.2-13.7-21.7-25.9-25.8V279.6
							C99,148.7,201.2,41.2,330.4,31.8v583.3c-21.6,7.2-33.2,30.5-25.9,52c7.3,21.5,30.6,33,52.2,25.8c21.6-7.2,33.2-30.5,25.9-52
							c-4.1-12.2-13.7-21.7-25.9-25.8V31.3c134,4.2,241.7,114,241.7,248.3v202.2c-21.6,7.2-33.2,30.5-25.9,52
							c7.3,21.5,30.6,33,52.2,25.8c21.6-7.2,33.2-30.5,25.9-52C646.4,495.4,636.8,485.9,624.5,481.8L624.5,481.8z"/>
					</defs>
					<use xlink:href="#SVGID_1_"  style="overflow:visible;fill-rule:evenodd;clip-rule:evenodd;"/>
					<clipPath id="SVGID_2_">
						<use xlink:href="#SVGID_1_"  style="overflow:visible;"/>
					</clipPath>
					<g class="st1">
						<defs>
							<rect id="SVGID_3_" x="37" y="4.3" width="618.8" height="690.8"/>
						</defs>
						<use xlink:href="#SVGID_3_"  style="overflow:visible;"/>
						<clipPath id="SVGID_4_">
							<use xlink:href="#SVGID_3_"  style="overflow:visible;"/>
						</clipPath>
						<rect x="-27.3" y="-67" class="st2" width="751.9" height="834"/>
					</g>
				</g>
			</g>
		</g>
	</g>
</g>
</svg>
