<?xml version="1.0" encoding="UTF-8"?>
<svg width="378px" height="281px" viewBox="0 0 378 281" version="1.1" xmlns="http://www.w3.org/2000/svg" xmlns:xlink="http://www.w3.org/1999/xlink">
    <!-- Generator: Sketch 55.2 (78181) - https://sketchapp.com -->
    <title>Logo-Lockup/White</title>
    <desc>Created with Sketch.</desc>
    <defs>
        <polygon id="path-1" points="0.0577667382 0.2904 245.742643 0.2904 245.742643 281 0.0577667382 281"></polygon>
        <polygon id="path-3" points="0.08475 0.43505 46.5 0.43505 46.5 41.65555 0.08475 41.65555"></polygon>
    </defs>
    <g id="Logo-Lockup/White" stroke="none" stroke-width="1" fill="none" fill-rule="evenodd">
        <g id="Group-13">
            <g id="Group-3" transform="translate(67.000000, 0.000000)">
                <mask id="mask-2" fill="white">
                    <use xlink:href="#path-1"></use>
                </mask>
                <g id="Clip-2"></g>
                <path d="M234.38885,194.2404 L234.38885,109.9199 L234.363402,109.9199 C233.246172,49.2904 183.681913,0.2904 122.899953,0.2904 C62.1189919,0.2904 12.5492434,49.2904 11.4365051,109.9199 L11.4120548,109.9199 L11.4120548,194.2404 C2.69227789,197.1769 -2.00068357,206.6409 0.930359026,215.3779 C3.86140162,224.1154 13.3057059,228.8174 22.0254828,225.8804 C30.7447606,222.9439 35.4377221,213.4799 32.5066795,204.7429 C30.8455558,199.7914 26.9669391,195.9044 22.0254828,194.2404 L22.0254828,112.0054 C22.0254828,58.7604 63.3265375,15.0054 115.510473,11.1954 L115.510473,248.4849 C106.790696,251.4219 102.097734,260.8859 105.028777,269.6234 C107.95932,278.3599 117.404124,283.0629 126.123402,280.1259 C134.843178,277.1889 139.535641,267.7254 136.605097,258.9879 C134.943974,254.0364 131.065357,250.1494 126.123402,248.4849 L126.123402,10.9854 C180.263361,12.6999 223.774923,57.3549 223.774923,112.0104 L223.774923,194.2454 C215.055645,197.1819 210.363183,206.6459 213.293726,215.3829 C216.224769,224.1204 225.669073,228.8224 234.38885,225.8859 C243.108128,222.9489 247.801089,213.4849 244.870047,204.7479 C243.209422,199.7959 239.329807,195.9094 234.38885,194.2454 L234.38885,194.2404 Z" id="Fill-1" fill="#FFFFFF" mask="url(#mask-2)"></path>
            </g>
            <path d="M29.7945567,119.206236 C28.8014048,117.465365 27.0137314,117.291277 25.2707498,117.291277 L14.6092643,117.291277 L14.6092643,125.304258 L24.1782827,125.304258 C25.8616752,125.304258 26.6611625,125.304258 27.4805128,125.075458 C29.2294533,124.683016 30.4351396,123.077435 30.3258929,121.285333 C30.3219203,120.559141 30.1391804,119.845384 29.7945567,119.206236 M39.7757332,131.810142 C35.8329202,134.481136 30.1520914,134.540823 25.6878736,134.540823 L14.6092643,134.540823 L14.6092643,149 L0,149 L0,108 L28.0664724,108 C29.456885,108 30.9068868,108 32.2972994,108.1144 C37.1091203,108.402887 41.2356664,109.566784 43.5447446,114.212423 C44.5602424,116.35071 45.0573149,118.699393 44.9947463,121.066481 C44.9947463,123.041126 44.7663214,128.497513 39.7757332,131.810142" id="Fill-4" fill="#FFFFFF"></path>
            <path d="M134.019806,119.378804 L129.335746,133.259155 L138.817749,133.259155 L134.019806,119.378804 Z M144.081127,148.994529 L141.882689,142.31545 L126.270806,142.31545 L124.072367,148.994529 L108,148.994529 L125.656827,108 L142.308513,108 L160,149 L144.081127,148.994529 Z" id="Fill-6" fill="#FFFFFF"></path>
            <polygon id="Fill-8" fill="#FFFFFF" points="261.033266 149 245.122196 149 238.660916 123.447113 232.083475 149 216.057249 149 206 108 220.507582 108 225.088659 134.423217 231.253752 108 246.399466 108 252.027 134.308831 256.552762 108.004973 271 108.004973"></polygon>
            <g id="Group-12" transform="translate(331.000000, 107.000000)">
                <mask id="mask-4" fill="white">
                    <use xlink:href="#path-3"></use>
                </mask>
                <g id="Clip-11"></g>
                <polygon id="Fill-10" fill="#FFFFFF" mask="url(#mask-4)" points="34.24025 41.65005 14.68025 19.58005 14.68025 41.65005 0.08475 41.65005 0.08475 0.43505 12.28525 0.43505 31.95975 22.15505 31.95975 0.43505 46.50025 0.43505 46.50025 41.65555"></polygon>
            </g>
        </g>
    </g>
</svg>